<?xml version="1.0" encoding="UTF-8" standalone="no"?>
<!-- Created with Inkscape (http://www.inkscape.org/) -->

<svg
   xmlns:dc="http://purl.org/dc/elements/1.1/"
   xmlns:cc="http://creativecommons.org/ns#"
   xmlns:rdf="http://www.w3.org/1999/02/22-rdf-syntax-ns#"
   xmlns:svg="http://www.w3.org/2000/svg"
   xmlns="http://www.w3.org/2000/svg"
   xmlns:sodipodi="http://sodipodi.sourceforge.net/DTD/sodipodi-0.dtd"
   xmlns:inkscape="http://www.inkscape.org/namespaces/inkscape"
   version="1.1"
   id="svg2"
   width="580.71094"
   height="531.61523"
   viewBox="0 0 580.71094 531.61523"
   sodipodi:docname="Logo.svg"
   inkscape:version="0.92.2 (5c3e80d, 2017-08-06)">
  <metadata
     id="metadata8">
    <rdf:RDF>
      <cc:Work
         rdf:about="">
        <dc:format>image/svg+xml</dc:format>
        <dc:type
           rdf:resource="http://purl.org/dc/dcmitype/StillImage" />
        <dc:title></dc:title>
      </cc:Work>
    </rdf:RDF>
  </metadata>
  <defs
     id="defs6" />
  <sodipodi:namedview
     pagecolor="#ffffff"
     bordercolor="#666666"
     borderopacity="1"
     objecttolerance="10"
     gridtolerance="10"
     guidetolerance="10"
     inkscape:pageopacity="0"
     inkscape:pageshadow="2"
     inkscape:window-width="1920"
     inkscape:window-height="1031"
     id="namedview4"
     showgrid="false"
     fit-margin-top="0"
     fit-margin-left="0"
     fit-margin-right="0"
     fit-margin-bottom="0"
     inkscape:zoom="0.608"
     inkscape:cx="242.40842"
     inkscape:cy="-28.798609"
     inkscape:window-x="0"
     inkscape:window-y="0"
     inkscape:window-maximized="1"
     inkscape:current-layer="svg2" />
  <path
     style="fill:#000000"
     d="M 237.35938,0 C 179.37319,0 128.24331,20.660957 86.529298,60.949219 67.818105,79.020879 53.595205,98.524864 42.371095,121.49999 c -14.58901,29.86287 -21.03326,56.63264 -22.20703,92.25 -0.33078,10.0375 -0.93508,18.25 -1.34375,18.25 -2.06659,0 -10.99026,9.59048 -13.6660204,14.6875 -4.22301304,8.04438 -5.67747304,15.07179 -4.99218304,24.13282 C 1.5956316,289.7748 16.846695,306.11729 35.484375,308.67187 l 4.34375,0.5957 5.58985,10.5625 c 35.03631,66.19734 99.632575,108.50279 176.441405,115.55469 8.58273,0.78799 36.55299,-0.36124 47,-1.93164 3.1036,-0.46654 6.18681,-1.00129 9.25391,-1.5957 v 99.75781 H 429.41212 580.71094 V 414.10156 296.58788 H 439.94337 c 3.23208,-8.17193 5.92521,-16.35914 7.9375,-24.3164 5.15457,-20.38295 6.43933,-31.4912 6.39648,-55.27149 -0.0392,-21.76415 -1.70348,-36.54052 -5.83789,-51.83203 l -1.44141,-5.33203 3.58399,-4.66797 c 7.56808,-9.85607 10.58907,-20.62092 9.14648,-32.60351 -2.53561,-21.06193 -22.46938,-37.793521 -43.36523,-36.398431 l -4.99805,0.33398 -7.08984,-8.5 C 395.4639,67.437129 379.5816,52.160658 369.2129,44.273438 330.46861,14.801614 286.38683,0 237.35938,0 Z m 0.47656,28.72461 c 42.99203,0.0823 81.81283,13.510938 116.02344,40.150389 9.08962,7.07799 22.14654,19.65812 28.33594,27.30274 l 3.78906,4.679681 -2.60937,3.9414 c -6.22235,9.40261 -8.5318,21.31043 -6.20508,32.00195 l 1.37305,6.30079 -39.42969,32.85351 -39.43164,32.85352 -4.16016,-1.83594 c -2.28869,-1.0103 -7.14804,-2.38577 -10.79883,-3.05664 -18.61938,-3.42153 -39.87211,9.18491 -45.72265,27.12109 l -1.1543,3.53711 -78.74219,7.25977 c -43.30858,3.99375 -78.997375,7.24117 -79.308595,7.21484 -0.31122,-0.0263 -1.53639,-1.776 -2.72266,-3.88672 -4.40693,-7.84108 -16.36546,-16.75837 -24.96289,-18.61718 l -3.25,-0.70313 v -12.04297 c 0,-31.57079 9.63656,-65.30234 26.79492,-93.79101 31.730275,-52.682971 88.177985,-87.180936 148.705085,-90.880856 4.53623,-0.2773 9.02912,-0.410854 13.47656,-0.402344 z m 159.49219,136.88866 c 1.14946,0.0807 3.16962,0.67642 5.17383,1.57032 2.67227,1.19187 7.75595,2.42603 11.29688,2.74218 l 6.4375,0.57422 1.25586,4.93555 c 5.31447,20.88925 5.76829,57.57506 0.99218,80.09766 -4.53485,21.38491 -12.73138,42.38863 -23.56054,60.375 -5.72655,9.51134 -12.77165,19.15906 -13.84571,18.95898 -0.39469,-0.0735 -2.96875,-0.984 -5.71875,-2.02148 -3.95513,-1.49212 -6.98674,-1.81104 -14.50781,-1.5293 l -9.50781,0.35547 -21.23438,-30.70703 -21.23633,-30.70899 3.00391,-5.8789 c 4.89676,-9.582 6.12006,-22.62691 2.91211,-31.06446 -0.81508,-2.14382 2.02983,-4.74695 37.84375,-34.61133 21.29954,-17.76118 39.24141,-32.60565 39.86914,-32.98828 0.15693,-0.0957 0.44302,-0.1265 0.82617,-0.0996 z m -158.56836,97.53321 c 1.77614,-0.0426 2.17375,0.61543 3.13477,2.93554 2.0877,5.04015 11.75355,14.18009 18.17383,17.1836 7.9062,3.69864 16.99013,5.24437 23.86133,4.06054 l 5.48242,-0.94531 21.36718,30.89649 21.36524,30.89843 -2.63086,5.66211 c -3.77654,8.12963 -5.01109,14.35064 -4.36914,22.00782 0.30841,3.6786 0.70841,7.3125 0.88867,8.07617 0.58008,2.4576 -25.05545,13.14446 -42.15625,17.57422 -14.43286,3.73865 -22.77054,4.71421 -43.01758,5.03125 -11.275,0.17656 -21.625,0.1294 -23,-0.10547 -1.375,-0.23487 -5.875,-0.9125 -10,-1.50391 -56.23034,-8.0618 -108.831404,-45.52353 -137.031255,-97.58984 l -3.34375,-6.16992 3.65235,-4.04297 c 4.54367,-5.0293 8.01499,-10.48406 9.771483,-15.35742 1.07715,-2.98856 1.96273,-3.83865 4.40039,-4.22852 1.67864,-0.26848 35.450782,-3.43403 75.050782,-7.0332 39.6,-3.59918 73.84148,-6.79817 76.0918,-7.10938 0.97045,-0.13421 1.71654,-0.22602 2.30859,-0.24023 z m 186.20117,64.45117 h 4.45118 120.9414 v 86.50391 86.50195 H 429.41212 308.47071 v -76.92969 c 9.14465,-3.18545 18.09567,-6.97557 26.83008,-11.38281 l 7.94141,-4.00586 6.55859,3.10742 c 6.1016,2.89134 7.32505,3.10742 17.55859,3.10742 10.34929,0 11.38451,-0.18862 17.5,-3.19531 10.72419,-5.27255 19.34926,-15.20182 22.63867,-26.06445 1.94379,-6.419 1.87199,-18.66589 -0.14257,-24.59961 l -1.625,-4.78711 3.94922,-5.17774 c 5.44348,-7.13409 10.58172,-14.92287 15.28124,-23.07812 z m -57.37695,21.875 c 6.39919,-0.01 11.51907,2.07565 15.99805,6.51562 4.81765,4.77565 6.88487,9.60915 6.91406,16.16602 0.019,4.27047 -0.53193,6.65881 -2.43359,10.53516 -2.25916,4.60506 -6.66128,8.7013 -11.58594,10.78125 -4.24556,1.79313 -9.95602,2.19818 -14.4707,1.02539 -6.68229,-1.73583 -11.7986,-5.94571 -14.85352,-12.22266 -3.16592,-6.50503 -3.21571,-13.11922 -0.14844,-19.68555 2.27588,-4.87212 5.77434,-8.45074 10.58008,-10.82226 3.3675,-1.66181 6.09231,-2.28697 10,-2.29297 z m 92.05469,25.72461 c -0.10728,-0.12228 -8.41523,11.44445 -18.46289,25.70508 -10.04764,14.2606 -18.34736,25.92878 -18.44336,25.92578 -0.0961,-0.002 -4.58181,-4.26106 -9.9668,-9.46485 l -9.79101,-9.46093 -1.83203,1.875 c -1.00789,1.03157 -12.96521,13.55316 -26.57227,27.82617 -13.60706,14.273 -25.70639,26.94243 -26.88672,28.1543 l -2.14648,2.20312 h 88.20898 c 48.5144,0 88.20703,-0.0656 88.20703,-0.14648 0,-0.14034 -61.90951,-92.15565 -62.31445,-92.61719 z"
     id="path3731"
     inkscape:connector-curvature="0" />
</svg>
